<?xml version="1.0" encoding="UTF-8"?><svg id="a" xmlns="http://www.w3.org/2000/svg" viewBox="0 0 2093.15 481.23"><defs><style>.b{fill:#2e95f3;}.c{fill:#f6fbff;}.d{fill:#839aac;}.e{fill:#1c75bc;}</style></defs><path class="e" d="M448.67,233.02c36.86-51.06,92.18-115.2,114.45-120.69,43.88-10.83,88.38,16.05,99.21,59.93,10.83,43.87-16.05,88.37-59.93,99.2-10.77,2.66-30.23-.97-53.77-8.55,47.22,22.22,92.55,36.43,132.94,43.15,13.3,2.27,25.95,3.67,37.95,4.53,37.22-43.02,53.79-102.81,39.15-162.11-23.94-97-122.34-156.44-219.33-132.5-40.89,10.09-85.63,46.89-136.77,112.46-9.09,11.65-30.27,40.9-37.76,51.47.45.25.92.49,1.37.75"/><path class="e" d="M325.98,263.31c-56.39-28.04-135.19-59.07-157.47-53.57-43.87,10.83-70.75,55.33-59.92,99.21,10.83,43.87,55.33,70.75,99.2,59.92,10.77-2.66,26.3-14.93,43.62-32.59-31.45,41.64-64.96,75.31-97.58,100.05-10.72,8.2-21.27,15.32-31.48,21.67-52.96-20.76-95.46-65.97-110.09-125.27C-11.7,235.72,47.73,137.32,144.73,113.38c40.9-10.09,97.62,1.65,173.4,35.9,13.46,6.08,45.82,22.11,57.37,27.99-.28.43-.58.86-.86,1.3"/><path class="b" d="M89.12,175.21c40.38,6.7,86.14,22.52,133.36,44.76,27.69,8.92,60.77,22.68,92.62,39.01l86.48,47.71.03.11c14.7,7.75,32.27,16.57,51.18,25.11,75.78,34.25,132.5,46,173.39,35.9,37.69-9.3,69.67-29.89,93.34-57.22-12.01-.87-24.65-2.27-37.95-4.53-40.38-6.71-85.72-20.92-132.94-43.15-27.7-8.92-61.07-23.33-92.92-39.65l-86.61-48.69-.02-.1c-14.7-7.75-32.27-16.58-51.18-25.12-75.78-34.25-132.5-45.99-173.39-35.89-37.69,9.3-69.67,29.89-93.34,57.22,12.01.86,24.65,2.26,37.95,4.53Z"/><path class="b" d="M153.59,436.38c32.62-24.72,66.14-58.39,97.59-100.05,20.36-20.79,43.21-49.05,63.8-78.33l54.01-83.39-.03-.11c9.4-13.7,20.85-29.68,33.62-46.04,51.14-65.58,95.88-102.37,136.77-112.46,37.69-9.3,75.58-5.97,109.24,7.22-10.22,6.35-20.76,13.48-31.48,21.67-32.62,24.74-66.84,60.98-98.29,102.62-20.36,20.79-41.94,47.54-62.54,76.81l-54.56,82.35.02.1c-9.4,13.7-20.85,29.69-33.62,46.06-51.14,65.58-95.88,102.36-136.77,112.45-37.69,9.3-75.58,5.97-109.24-7.22,10.23-6.34,20.77-13.47,31.48-21.67Z"/><path class="c" d="M288.65,397.36v-109.15h47.4c15.69,0,27.1,3.41,34.23,10.21,7.12,6.81,10.68,15.36,10.68,25.65,0,4.89-.78,9.41-2.34,13.57-1.56,4.16-4.03,7.98-7.41,11.46-3.38,3.49-8.03,6.21-13.96,8.19s-12.89,2.96-20.89,2.96h-17.46v37.11h-30.25ZM318.9,337.49h17.15c4.68,0,8.32-1.12,10.91-3.35,2.6-2.23,3.9-5.43,3.9-9.59s-1.32-7.35-3.98-9.59c-2.65-2.23-6.26-3.35-10.84-3.35h-17.15v25.88Z"/><path class="c" d="M380.49,354.01c0-12.99,4.16-23.57,12.47-31.73,8.32-8.16,18.81-12.24,31.5-12.24s23.02,4.08,31.34,12.24c8.32,8.16,12.47,18.74,12.47,31.73,0,13.93-4.03,24.98-12.08,33.13-8.06,8.16-18.63,12.24-31.73,12.24s-23.96-4.08-31.96-12.24c-8.01-8.16-12.01-19.2-12.01-33.13ZM409.96,354.17c0,7.48,1.22,13.36,3.67,17.62,2.44,4.26,6.05,6.39,10.84,6.39s8.24-2.13,10.68-6.39c2.44-4.26,3.67-10.14,3.67-17.62,0-6.96-1.28-12.52-3.82-16.68-2.55-4.16-6.06-6.24-10.52-6.24s-8.01,2.08-10.6,6.24c-2.6,4.16-3.9,9.72-3.9,16.68Z"/><path class="c" d="M490.41,397.36l-26.66-85.29h27.91l13.57,47.56h.31l12.79-47.56h21.98l12.79,47.56h.31l13.41-47.56h27.76l-26.67,85.29h-25.42l-13.25-44.44h-.31l-13.1,44.44h-25.42Z"/><path class="c" d="M590.21,354.48c0-13.51,4.23-24.3,12.71-32.35,8.47-8.05,18.84-12.08,31.11-12.08s22.04,3.51,29.31,10.53c7.27,7.02,10.92,16.45,10.92,28.3,0,4.47-.37,8.63-1.09,12.47h-53.17c1.45,10.19,7.02,15.28,16.68,15.28,7.69,0,15.33-2.23,22.92-6.7l11.85,17.62c-10.71,7.9-23.23,11.85-37.58,11.85-12.58,0-23-4.03-31.26-12.08-8.27-8.05-12.4-18.99-12.4-32.82ZM634.96,330.31c-3.64,0-6.76,1.32-9.36,3.97-2.6,2.65-4.36,6.63-5.3,11.93h26.67c0-4.78-.99-8.63-2.96-11.54-1.98-2.91-4.99-4.36-9.04-4.36Z"/><path class="c" d="M678.61,397.36v-85.29h27.44l1.72,12.01c5.4-9.77,13.3-14.66,23.7-14.66,3.22,0,6.34.42,9.36,1.25l-3.43,26.67c-3.43-1.14-7.43-1.72-12.01-1.72-7.28,0-13.1,4.26-17.46,12.79v48.96h-29.32Z"/><path class="c" d="M736.15,354.48c0-13.51,4.23-24.3,12.71-32.35,8.47-8.05,18.84-12.08,31.11-12.08s22.04,3.51,29.31,10.53c7.27,7.02,10.92,16.45,10.92,28.3,0,4.47-.37,8.63-1.09,12.47h-53.17c1.45,10.19,7.02,15.28,16.68,15.28,7.69,0,15.33-2.23,22.92-6.7l11.85,17.62c-10.71,7.9-23.23,11.85-37.58,11.85-12.58,0-23-4.03-31.26-12.08-8.27-8.05-12.4-18.99-12.4-32.82ZM780.9,330.31c-3.64,0-6.76,1.32-9.36,3.97-2.6,2.65-4.36,6.63-5.3,11.93h26.67c0-4.78-.99-8.63-2.96-11.54-1.98-2.91-4.99-4.36-9.04-4.36Z"/><path class="c" d="M852.47,399.08c-9.15,0-16.61-3.9-22.38-11.69-5.77-7.8-8.65-18.92-8.65-33.37s2.86-25.23,8.58-32.67c5.72-7.43,13.51-11.15,23.39-11.15,9.35,0,16.94,3.59,22.76,10.76v-41.32h29.32v117.72h-25.73l-1.71-9.51c-7.28,7.48-15.8,11.23-25.57,11.23ZM863.07,377.56c5.09,0,9.46-1.97,13.1-5.93v-33.52c-3.85-4.16-8.21-6.24-13.1-6.24-8.42,0-12.63,7.38-12.63,22.14,0,7.07,1.07,12.76,3.2,17.07,2.13,4.31,5.27,6.47,9.43,6.47Z"/><path class="c" d="M942.75,397.36v-109.15h48.18c13.31,0,23.31,2.63,30.02,7.87,6.7,5.25,10.06,12.45,10.06,21.6,0,10.5-5.46,18.24-16.37,23.23,6.13,1.98,11.04,5.04,14.73,9.2,3.69,4.16,5.54,9.46,5.54,15.9,0,9.98-3.85,17.7-11.54,23.16-7.69,5.46-18.04,8.19-31.03,8.19h-49.59ZM972.69,332.81h15.28c8.52,0,12.79-3.59,12.79-10.76,0-3.33-1.12-5.9-3.35-7.72-2.24-1.82-5.38-2.73-9.43-2.73h-15.28v21.21ZM972.69,373.97h18.71c4.26,0,7.61-.94,10.06-2.81,2.44-1.87,3.66-4.68,3.66-8.42s-1.25-6.42-3.74-8.34c-2.5-1.92-5.82-2.88-9.98-2.88h-18.71v22.45Z"/><path class="c" d="M1040.67,404.69c4.89,1.77,8.78,2.65,11.69,2.65s5.28-.57,6.78-1.72c1.51-1.15,2.78-3.27,3.82-6.39l1.4-3.43-30.87-83.73h29l15.75,49.74h.31l15.75-49.74h27.91l-29,82.95c-4.99,13.62-10.35,22.87-16.06,27.75-5.72,4.88-13.2,7.33-22.45,7.33-7.07,0-14.24-1.09-21.52-3.27l7.48-22.14Z"/><path class="c" d="M1149.19,376.78c0-18.19,16.16-28.74,48.49-31.65v-4.68c0-5.2-3.07-7.8-9.2-7.8s-15.54,2.86-27.6,8.58l-9.82-20.58c13.82-7.07,26.82-10.6,38.98-10.6,24.43,0,36.64,10.5,36.64,31.5v31.96c0,3.43,1.92,5.15,5.77,5.15v19.18c-9.46,0-16.4-.73-20.82-2.18-4.42-1.45-8.08-4.37-10.99-8.73-3.74,4.37-7.67,7.54-11.77,9.51-4.11,1.97-9.07,2.96-14.89,2.96-7.28,0-13.23-2.08-17.85-6.24-4.63-4.16-6.94-9.61-6.94-16.37ZM1178.19,372.41c0,1.98.7,3.64,2.11,4.99,1.4,1.35,3.25,2.03,5.53,2.03,4.78,0,8.73-1.92,11.85-5.77v-13.88c-12.99.94-19.49,5.15-19.49,12.63Z"/><path class="c" d="M1235.88,302.56v-22.61h29.47v22.61h-29.47ZM1235.88,397.36v-83.58h29.47v83.58h-29.47Z"/><path class="c" d="M1270.34,342.63c0-16.11,5.46-29.55,16.37-40.31,10.92-10.76,24.79-16.14,41.63-16.14,15.49,0,29.42,5.04,41.79,15.12l-16.53,20.11c-8.01-6.65-16.22-9.98-24.64-9.98s-15.51,2.83-20.66,8.5c-5.15,5.67-7.72,13.23-7.72,22.69s2.52,17.34,7.56,23c5.04,5.67,11.98,8.5,20.82,8.5,9.35,0,17.62-3.48,24.79-10.45l17.46,18.4c-12.47,11.54-27.13,17.31-43.97,17.31s-30.41-5.38-41.01-16.14c-10.6-10.76-15.9-24.3-15.9-40.62Z"/><path class="c" d="M1367.64,354.01c0-12.99,4.16-23.57,12.47-31.73,8.32-8.16,18.81-12.24,31.5-12.24s23.02,4.08,31.34,12.24c8.32,8.16,12.47,18.74,12.47,31.73,0,13.93-4.03,24.98-12.08,33.13-8.06,8.16-18.63,12.24-31.73,12.24s-23.96-4.08-31.96-12.24c-8.01-8.16-12.01-19.2-12.01-33.13ZM1397.11,354.17c0,7.48,1.22,13.36,3.67,17.62,2.44,4.26,6.05,6.39,10.84,6.39s8.24-2.13,10.68-6.39c2.44-4.26,3.67-10.14,3.67-17.62,0-6.96-1.28-12.52-3.82-16.68-2.55-4.16-6.06-6.24-10.52-6.24s-8.01,2.08-10.6,6.24c-2.6,4.16-3.9,9.72-3.9,16.68Z"/><path class="c" d="M1459.79,397.36v-85.29h27.91l1.25,9.2c7.48-7.48,15.69-11.23,24.64-11.23s16.14,2.63,20.35,7.88c4.21,5.25,6.32,13.02,6.32,23.31v56.13h-29.32v-56.91c0-6.24-2.76-9.35-8.26-9.35-4.99,0-9.51,2.6-13.57,7.8v58.47h-29.32Z"/><path class="c" d="M1547.26,397.36v-85.29h27.91l1.25,9.2c7.48-7.48,15.69-11.23,24.64-11.23s16.14,2.63,20.35,7.88c4.21,5.25,6.32,13.02,6.32,23.31v56.13h-29.32v-56.91c0-6.24-2.76-9.35-8.26-9.35-4.99,0-9.51,2.6-13.57,7.8v58.47h-29.32Z"/><path class="c" d="M1631.62,354.48c0-13.51,4.23-24.3,12.71-32.35,8.47-8.05,18.84-12.08,31.11-12.08s22.04,3.51,29.31,10.53c7.27,7.02,10.92,16.45,10.92,28.3,0,4.47-.37,8.63-1.09,12.47h-53.17c1.45,10.19,7.02,15.28,16.68,15.28,7.69,0,15.33-2.23,22.92-6.7l11.85,17.62c-10.71,7.9-23.23,11.85-37.58,11.85-12.58,0-23-4.03-31.26-12.08-8.27-8.05-12.4-18.99-12.4-32.82ZM1676.37,330.31c-3.64,0-6.76,1.32-9.36,3.97-2.6,2.65-4.36,6.63-5.3,11.93h26.67c0-4.78-.99-8.63-2.96-11.54-1.98-2.91-4.99-4.36-9.04-4.36Z"/><path class="c" d="M1716.6,354.48c0-13.62,4.23-24.43,12.71-32.43,8.47-8,19.26-12.01,32.35-12.01,11.64,0,22.04,3.69,31.19,11.07l-14.35,18.24c-4.89-4.05-10.13-6.08-15.75-6.08-4.58,0-8.47,1.82-11.69,5.46-3.22,3.64-4.83,8.89-4.83,15.75s1.61,12.32,4.83,16.06c3.22,3.74,7.12,5.61,11.69,5.61,5.2,0,10.24-1.92,15.12-5.77l15.44,16.22c-9.25,8.53-19.8,12.79-31.65,12.79-13,0-23.76-4.05-32.28-12.16-8.53-8.11-12.79-19.02-12.79-32.74Z"/><path class="c" d="M1801.57,368.83v-37.11h-12.32v-19.65h12.32v-19.33h29.32v19.33h22.76v19.65h-22.76v36.49c0,5.3,2.18,7.95,6.55,7.95,3.53,0,6.96-1.2,10.29-3.59l10.29,16.84c-8.32,6.65-17.78,9.98-28.38,9.98-9.67,0-16.76-2.44-21.29-7.33-4.52-4.88-6.78-12.63-6.78-23.23Z"/><path class="c" d="M1852.56,354.48c0-13.51,4.23-24.3,12.71-32.35,8.47-8.05,18.84-12.08,31.11-12.08s22.04,3.51,29.31,10.53c7.27,7.02,10.92,16.45,10.92,28.3,0,4.47-.37,8.63-1.09,12.47h-53.17c1.45,10.19,7.02,15.28,16.68,15.28,7.69,0,15.33-2.23,22.92-6.7l11.85,17.62c-10.71,7.9-23.23,11.85-37.58,11.85-12.58,0-23-4.03-31.26-12.08-8.27-8.05-12.4-18.99-12.4-32.82ZM1897.31,330.31c-3.64,0-6.76,1.32-9.36,3.97-2.6,2.65-4.36,6.63-5.3,11.93h26.67c0-4.78-.99-8.63-2.96-11.54-1.98-2.91-4.99-4.36-9.04-4.36Z"/><path class="c" d="M1968.88,399.08c-9.15,0-16.61-3.9-22.38-11.69-5.77-7.8-8.65-18.92-8.65-33.37s2.86-25.23,8.58-32.67c5.72-7.43,13.51-11.15,23.39-11.15,9.35,0,16.94,3.59,22.76,10.76v-41.32h29.32v117.72h-25.73l-1.71-9.51c-7.28,7.48-15.8,11.23-25.57,11.23ZM1979.48,377.56c5.09,0,9.46-1.97,13.1-5.93v-33.52c-3.85-4.16-8.21-6.24-13.1-6.24-8.42,0-12.63,7.38-12.63,22.14,0,7.07,1.07,12.76,3.2,17.07,2.13,4.31,5.27,6.47,9.43,6.47Z"/><path class="c" d="M2042.24,400.27v-18.77h-7.72v-6.02h22.23v6.02h-7.72v18.77h-6.8Z"/><path class="c" d="M2059.52,400.27v-24.78h6.83l6.55,9.21,6.59-9.21h6.73v24.78h-6.41v-15.37l-6.9,9.42-6.9-9.42v15.37h-6.48Z"/><path class="d" d="M1165.9,447.96h-19.19l-3.97,9.03h-5.31l16.35-36.11h5.11l16.4,36.11h-5.42l-3.97-9.03ZM1164.09,443.83l-7.79-17.7-7.79,17.7h15.58Z"/><path class="d" d="M1214.28,420.88v36.11h-4.23l-21.67-26.93v26.93h-5.16v-36.11h4.23l21.67,26.93v-26.93h5.16Z"/><path class="d" d="M1241.2,438.93c0-10.58,8.15-18.47,19.24-18.47s19.14,7.84,19.14,18.47-8.15,18.47-19.14,18.47-19.24-7.89-19.24-18.47ZM1274.42,438.93c0-8-5.98-13.88-13.98-13.88s-14.08,5.88-14.08,13.88,5.98,13.88,14.08,13.88,13.98-5.88,13.98-13.88Z"/><path class="d" d="M1311.45,456.99l-10.83-14.91-10.68,14.91h-5.93l13.57-18.52-12.74-17.59h5.88l10.11,13.88,10.01-13.88h5.62l-12.74,17.44,13.67,18.67h-5.93Z"/><path class="d" d="M1330.02,425.36v12.59h18.11v4.44h-18.11v14.6h-5.16v-36.11h25.48v4.49h-20.32Z"/><path class="d" d="M1356.84,438.93c0-10.58,8.15-18.47,19.24-18.47s19.14,7.84,19.14,18.47-8.15,18.47-19.14,18.47-19.24-7.89-19.24-18.47ZM1390.06,438.93c0-8-5.98-13.88-13.98-13.88s-14.08,5.88-14.08,13.88,5.98,13.88,14.08,13.88,13.98-5.88,13.98-13.88Z"/><path class="d" d="M1429.82,456.99l-7.79-11.09c-.72.05-1.5.1-2.27.1h-8.92v10.99h-5.16v-36.11h14.08c9.39,0,15.06,4.75,15.06,12.59,0,5.57-2.89,9.59-7.95,11.4l8.56,12.12h-5.62ZM1429.67,433.46c0-5.16-3.46-8.1-10.06-8.1h-8.77v16.25h8.77c6.6,0,10.06-2.99,10.06-8.15Z"/><path class="d" d="M1445.76,420.88h15.22c11.61,0,19.5,7.33,19.5,18.06s-7.89,18.06-19.5,18.06h-15.22v-36.11ZM1460.66,452.5c8.93,0,14.65-5.47,14.65-13.57s-5.72-13.57-14.65-13.57h-9.75v27.13h9.75Z"/><path class="d" d="M1536.54,433.46c0,7.84-5.67,12.59-15.06,12.59h-8.92v10.94h-5.16v-36.11h14.08c9.39,0,15.06,4.75,15.06,12.59ZM1531.38,433.46c0-5.16-3.46-8.1-10.06-8.1h-8.77v16.2h8.77c6.6,0,10.06-2.94,10.06-8.1Z"/><path class="d" d="M1546.69,420.88h5.16v36.11h-5.16v-36.11Z"/><path class="d" d="M1591.47,452.5v4.49h-26.21v-36.11h25.48v4.49h-20.32v11.09h18.11v4.39h-18.11v11.66h21.05Z"/><path class="d" d="M1626.54,456.99l-7.79-11.09c-.72.05-1.5.1-2.27.1h-8.92v10.99h-5.16v-36.11h14.08c9.39,0,15.06,4.75,15.06,12.59,0,5.57-2.89,9.59-7.95,11.4l8.56,12.12h-5.62ZM1626.39,433.46c0-5.16-3.46-8.1-10.06-8.1h-8.77v16.25h8.77c6.6,0,10.06-2.99,10.06-8.15Z"/><path class="d" d="M1671.62,433.46c0,7.84-5.67,12.59-15.06,12.59h-8.92v10.94h-5.16v-36.11h14.08c9.39,0,15.06,4.75,15.06,12.59ZM1666.46,433.46c0-5.16-3.46-8.1-10.06-8.1h-8.77v16.2h8.77c6.6,0,10.06-2.94,10.06-8.1Z"/><path class="d" d="M1679.35,438.93c0-10.58,8.15-18.47,19.24-18.47s19.14,7.84,19.14,18.47-8.15,18.47-19.14,18.47-19.24-7.89-19.24-18.47ZM1712.57,438.93c0-8-5.98-13.88-13.98-13.88s-14.08,5.88-14.08,13.88,5.98,13.88,14.08,13.88,13.98-5.88,13.98-13.88Z"/><path class="d" d="M1759.25,420.88v36.11h-4.23l-21.67-26.93v26.93h-5.16v-36.11h4.23l21.67,26.93v-26.93h5.16Z"/><path class="d" d="M1779.83,425.36h-12.38v-4.49h29.87v4.49h-12.38v31.62h-5.11v-31.62Z"/><path class="d" d="M1853.02,447.24c0,6.19-4.69,9.75-13.82,9.75h-17.23v-36.11h16.2c8.3,0,12.95,3.51,12.95,9.34,0,3.92-2.01,6.65-4.85,8.05,4.07,1.13,6.76,4.18,6.76,8.98ZM1827.13,425.06v11.56h10.58c5.26,0,8.25-1.96,8.25-5.78s-2.99-5.78-8.25-5.78h-10.58ZM1847.81,446.83c0-4.18-3.1-6.04-8.82-6.04h-11.86v12.02h11.86c5.73,0,8.82-1.81,8.82-5.98Z"/><path class="d" d="M1887.73,456.99l-7.79-11.09c-.72.05-1.5.1-2.27.1h-8.92v10.99h-5.16v-36.11h14.08c9.39,0,15.06,4.75,15.06,12.59,0,5.57-2.89,9.59-7.95,11.4l8.56,12.12h-5.62ZM1887.58,433.46c0-5.16-3.46-8.1-10.06-8.1h-8.77v16.25h8.77c6.6,0,10.06-2.99,10.06-8.15Z"/><path class="d" d="M1926.67,447.96h-19.19l-3.97,9.03h-5.31l16.35-36.11h5.11l16.4,36.11h-5.42l-3.97-9.03ZM1924.87,443.83l-7.79-17.7-7.79,17.7h15.58Z"/><path class="d" d="M1975.05,420.88v36.11h-4.23l-21.67-26.93v26.93h-5.16v-36.11h4.23l21.67,26.93v-26.93h5.16Z"/><path class="d" d="M1988.46,420.88h15.22c11.61,0,19.5,7.33,19.5,18.06s-7.89,18.06-19.5,18.06h-15.22v-36.11ZM2003.37,452.5c8.93,0,14.65-5.47,14.65-13.57s-5.72-13.57-14.65-13.57h-9.75v27.13h9.75Z"/></svg>