<?xml version="1.0" encoding="UTF-8"?><svg id="a" xmlns="http://www.w3.org/2000/svg" viewBox="0 0 2487.5 481.23"><defs><style>.b{fill:#2e95f3;}.c{fill:#f6fbff;}.d{fill:#1c75bc;}</style></defs><path class="d" d="M458.63,232.86c37.64-52.13,94.11-117.61,116.85-123.22,44.79-11.06,90.23,16.38,101.28,61.18,11.06,44.79-16.39,90.22-61.18,101.27-11,2.71-30.86-.99-54.9-8.73,48.21,22.69,94.49,37.19,135.72,44.05,13.58,2.31,26.49,3.74,38.75,4.63,38-43.92,54.91-104.96,39.97-165.5-24.44-99.03-124.9-159.72-223.92-135.27-41.75,10.3-87.42,47.87-139.63,114.82-9.28,11.89-30.9,41.75-38.55,52.55.46.26.94.5,1.4.76"/><path class="d" d="M333.37,263.78c-57.57-28.63-138.02-60.31-160.76-54.7-44.79,11.06-72.24,56.49-61.18,101.29,11.06,44.79,56.49,72.23,101.28,61.17,11-2.72,26.85-15.24,44.53-33.27-32.11,42.51-66.32,76.89-99.63,102.14-10.95,8.37-21.71,15.64-32.14,22.13-54.07-21.19-97.45-67.35-112.4-127.89C-11.38,235.62,49.3,135.16,148.32,110.72c41.75-10.31,99.66,1.69,177.03,36.65,13.74,6.21,46.78,22.58,58.57,28.58-.29.44-.6.87-.88,1.33"/><path class="b" d="M91.55,173.84c41.23,6.84,87.95,22.99,136.15,45.69,28.27,9.11,62.05,23.15,94.56,39.82l88.29,48.71.03.11c15,7.91,32.94,16.91,52.25,25.64,77.37,34.97,135.27,46.96,177.02,36.66,38.48-9.5,71.13-30.51,95.29-58.42-12.26-.89-25.17-2.32-38.75-4.63-41.23-6.85-87.51-21.36-135.72-44.05-28.28-9.11-62.35-23.81-94.86-40.48l-88.43-49.71-.03-.1c-15.01-7.91-32.95-16.93-52.26-25.65-77.37-34.97-135.27-46.95-177.02-36.64-38.48,9.5-71.13,30.51-95.29,58.42,12.26.87,25.17,2.3,38.75,4.63Z"/><path class="b" d="M157.37,440.47c33.31-25.24,67.53-59.62,99.63-102.14,20.79-21.22,44.11-50.08,65.13-79.97l55.14-85.14-.03-.11c9.6-13.99,21.29-30.3,34.32-47.01,52.21-66.95,97.88-104.51,139.63-114.82,38.48-9.5,77.16-6.09,111.53,7.37-10.44,6.49-21.2,13.76-32.14,22.13-33.3,25.25-68.24,62.26-100.35,104.77-20.79,21.22-42.82,48.54-63.85,78.42l-55.71,84.07.03.1c-9.6,13.99-21.29,30.31-34.32,47.02-52.21,66.95-97.89,104.5-139.63,114.81-38.48,9.5-77.16,6.09-111.53-7.37,10.44-6.48,21.21-13.75,32.14-22.13Z"/><path class="c" d="M750.89,310.33c0-33.89,30.11-53.55,90.35-58.98v-8.71c0-9.68-5.72-14.53-17.14-14.53s-28.96,5.33-51.42,15.98l-18.3-38.35c25.76-13.17,49.97-19.76,72.63-19.76,45.52,0,68.27,19.57,68.27,58.69v59.56c0,6.39,3.58,9.59,10.75,9.59v35.74c-17.63,0-30.56-1.35-38.79-4.07-8.23-2.71-15.06-8.14-20.48-16.27-6.97,8.14-14.29,14.05-21.94,17.72-7.65,3.68-16.9,5.52-27.75,5.52-13.56,0-24.65-3.87-33.26-11.62-8.62-7.75-12.93-17.91-12.93-30.5ZM804.93,302.2c0,3.68,1.31,6.78,3.92,9.3,2.61,2.52,6.05,3.78,10.31,3.78,8.91,0,16.27-3.58,22.08-10.75v-25.86c-24.21,1.74-36.32,9.59-36.32,23.53Z"/><path class="c" d="M912.42,172.04v-42.13h54.91v42.13h-54.91ZM912.42,348.68v-155.72h54.91v155.72h-54.91Z"/><path class="c" d="M976.63,246.7c0-30.02,10.17-55.05,30.5-75.1,20.34-20.05,46.2-30.07,77.57-30.07,28.86,0,54.81,9.4,77.86,28.18l-30.8,37.48c-14.92-12.39-30.22-18.59-45.9-18.59s-28.91,5.28-38.49,15.83c-9.59,10.56-14.38,24.65-14.38,42.27s4.69,32.3,14.09,42.85c9.39,10.56,22.32,15.83,38.79,15.83,17.43,0,32.83-6.49,46.19-19.47l32.54,34.28c-23.24,21.5-50.55,32.25-81.93,32.25s-56.65-10.02-76.41-30.07c-19.76-20.05-29.63-45.27-29.63-75.68Z"/><path class="c" d="M1157.92,267.91c0-24.21,7.74-43.92,23.24-59.12,15.49-15.2,35.05-22.81,58.69-22.81s42.9,7.61,58.4,22.81c15.49,15.21,23.24,34.91,23.24,59.12,0,25.96-7.51,46.53-22.52,61.74-15.01,15.21-34.72,22.81-59.12,22.81s-44.65-7.6-59.56-22.81c-14.92-15.2-22.37-35.78-22.37-61.74ZM1212.83,268.21c0,13.95,2.28,24.89,6.83,32.83,4.55,7.94,11.28,11.91,20.19,11.91s15.35-3.97,19.9-11.91c4.55-7.94,6.83-18.88,6.83-32.83,0-12.98-2.37-23.34-7.12-31.09-4.75-7.75-11.28-11.62-19.61-11.62s-14.92,3.88-19.76,11.62c-4.84,7.75-7.26,18.11-7.26,31.09Z"/><path class="c" d="M1329.62,348.68v-158.92h52.01l2.32,17.14c13.95-13.95,29.24-20.92,45.9-20.92s30.07,4.9,37.91,14.67c7.84,9.78,11.77,24.26,11.77,43.43v104.59h-54.62v-106.04c0-11.62-5.13-17.43-15.4-17.43-9.3,0-17.72,4.84-25.28,14.53v108.95h-54.62Z"/><path class="c" d="M1492.6,348.68v-158.92h52.01l2.32,17.14c13.95-13.95,29.24-20.92,45.9-20.92s30.07,4.9,37.91,14.67c7.84,9.78,11.77,24.26,11.77,43.43v104.59h-54.62v-106.04c0-11.62-5.13-17.43-15.4-17.43-9.3,0-17.72,4.84-25.28,14.53v108.95h-54.62Z"/><path class="c" d="M1649.78,268.79c0-25.18,7.89-45.27,23.68-60.28,15.78-15.01,35.11-22.52,57.96-22.52s41.06,6.54,54.62,19.61c13.56,13.07,20.34,30.65,20.34,52.73,0,8.33-.68,16.08-2.03,23.24h-99.07c2.71,18.98,13.07,28.47,31.09,28.47,14.33,0,28.57-4.16,42.71-12.49l22.08,32.83c-19.95,14.72-43.29,22.08-70.02,22.08-23.44,0-42.85-7.5-58.25-22.52-15.4-15.01-23.1-35.39-23.1-61.16ZM1733.16,223.75c-6.78,0-12.59,2.47-17.43,7.41-4.84,4.94-8.13,12.35-9.88,22.23h49.68c0-8.91-1.84-16.07-5.52-21.5-3.68-5.42-9.3-8.14-16.85-8.14Z"/><path class="c" d="M1808.11,268.79c0-25.37,7.89-45.51,23.68-60.43,15.78-14.91,35.88-22.37,60.28-22.37,21.69,0,41.06,6.88,58.11,20.63l-26.73,33.99c-9.11-7.55-18.88-11.33-29.34-11.33-8.53,0-15.79,3.39-21.79,10.17-6.01,6.78-9.01,16.56-9.01,29.34s3,22.95,9.01,29.93c6,6.97,13.26,10.46,21.79,10.46,9.68,0,19.07-3.58,28.18-10.75l28.76,30.22c-17.24,15.88-36.9,23.82-58.98,23.82-24.21,0-44.26-7.56-60.14-22.66-15.88-15.11-23.82-35.44-23.82-61.01Z"/><path class="c" d="M1966.45,295.51v-69.15h-22.95v-36.61h22.95v-36.03h54.62v36.03h42.42v36.61h-42.42v67.99c0,9.88,4.07,14.82,12.2,14.82,6.58,0,12.97-2.22,19.18-6.68l19.18,31.38c-15.5,12.4-33.12,18.59-52.88,18.59-18.01,0-31.23-4.55-39.66-13.66-8.43-9.1-12.64-23.53-12.64-43.29Z"/><path class="c" d="M2061.45,268.79c0-25.18,7.89-45.27,23.68-60.28,15.78-15.01,35.11-22.52,57.96-22.52s41.06,6.54,54.62,19.61c13.56,13.07,20.34,30.65,20.34,52.73,0,8.33-.68,16.08-2.03,23.24h-99.07c2.71,18.98,13.07,28.47,31.09,28.47,14.33,0,28.57-4.16,42.71-12.49l22.08,32.83c-19.95,14.72-43.29,22.08-70.02,22.08-23.44,0-42.85-7.5-58.25-22.52-15.4-15.01-23.1-35.39-23.1-61.16ZM2144.84,223.75c-6.78,0-12.59,2.47-17.43,7.41-4.84,4.94-8.13,12.35-9.88,22.23h49.68c0-8.91-1.84-16.07-5.52-21.5-3.68-5.42-9.3-8.14-16.85-8.14Z"/><path class="c" d="M2278.19,351.88c-17.05,0-30.94-7.26-41.69-21.79-10.75-14.53-16.12-35.25-16.12-62.17s5.32-47.02,15.98-60.87c10.65-13.85,25.18-20.77,43.58-20.77,17.43,0,31.57,6.68,42.42,20.05v-76.99h54.62v219.35h-47.94l-3.2-17.72c-13.56,13.95-29.44,20.92-47.65,20.92ZM2297.94,311.79c9.49,0,17.62-3.68,24.4-11.04v-62.46c-7.17-7.75-15.3-11.62-24.4-11.62-15.69,0-23.53,13.76-23.53,41.26,0,13.17,1.98,23.78,5.96,31.81,3.97,8.04,9.83,12.06,17.58,12.06Z"/><path class="c" d="M2400.37,346.64v-35.34h-14.54v-11.33h41.87v11.33h-14.54v35.34h-12.8Z"/><path class="c" d="M2429.57,346.64v-46.67h12.87l12.33,17.34,12.4-17.34h12.67v46.67h-12.07v-28.94l-13,17.74-13-17.74v28.94h-12.2Z"/></svg>