<?xml version="1.0" encoding="UTF-8"?><svg id="a" xmlns="http://www.w3.org/2000/svg" viewBox="0 0 1156.84 167.77"><defs><style>.b{fill:#1e2328;}</style></defs><path class="b" d="M8.93,129.63c0-22.33,19.84-35.28,59.52-38.85v-5.74c0-6.38-3.77-9.57-11.29-9.57s-19.08,3.51-33.88,10.53l-12.06-25.26c16.97-8.68,32.92-13.02,47.85-13.02,29.98,0,44.98,12.89,44.98,38.66v39.24c0,4.21,2.36,6.31,7.08,6.31v23.54c-11.61,0-20.13-.89-25.55-2.68-5.42-1.79-9.92-5.36-13.49-10.72-4.59,5.36-9.41,9.25-14.45,11.68-5.04,2.42-11.13,3.64-18.28,3.64-8.93,0-16.24-2.55-21.91-7.66-5.68-5.1-8.52-11.8-8.52-20.1ZM44.53,124.27c0,2.43.86,4.47,2.58,6.12,1.72,1.66,3.99,2.49,6.79,2.49,5.87,0,10.72-2.36,14.55-7.08v-17.03c-15.95,1.15-23.92,6.32-23.92,15.5Z"/><path class="b" d="M115.34,38.52V10.77h36.17v27.75h-36.17ZM115.34,154.89V52.3h36.17v102.59h-36.17Z"/><path class="b" d="M157.64,87.71c0-19.78,6.7-36.27,20.1-49.47,13.4-13.21,30.43-19.81,51.1-19.81,19.01,0,36.11,6.19,51.29,18.57l-20.29,24.69c-9.83-8.16-19.91-12.25-30.24-12.25s-19.04,3.48-25.36,10.43c-6.32,6.95-9.47,16.24-9.47,27.85s3.09,21.28,9.28,28.23c6.19,6.96,14.7,10.43,25.55,10.43,11.48,0,21.63-4.27,30.43-12.82l21.44,22.58c-15.31,14.16-33.3,21.25-53.97,21.25s-37.32-6.6-50.34-19.81c-13.01-13.21-19.52-29.82-19.52-49.86Z"/><path class="b" d="M277.07,101.68c0-15.95,5.1-28.93,15.31-38.95,10.21-10.02,23.09-15.03,38.66-15.03s28.26,5.01,38.47,15.03c10.21,10.02,15.31,23,15.31,38.95,0,17.1-4.95,30.66-14.83,40.67-9.89,10.02-22.87,15.03-38.95,15.03s-29.41-5.01-39.24-15.03c-9.83-10.02-14.74-23.57-14.74-40.67ZM313.24,101.88c0,9.19,1.5,16.4,4.5,21.63,3,5.23,7.43,7.85,13.3,7.85s10.11-2.61,13.11-7.85c3-5.23,4.5-12.44,4.5-21.63,0-8.55-1.56-15.37-4.69-20.48-3.13-5.1-7.43-7.66-12.92-7.66s-9.83,2.55-13.01,7.66c-3.19,5.1-4.79,11.93-4.79,20.48Z"/><path class="b" d="M390.18,154.89V50.2h34.26l1.53,11.29c9.19-9.19,19.27-13.78,30.24-13.78s19.81,3.22,24.98,9.67c5.17,6.44,7.75,15.98,7.75,28.61v68.9h-35.98v-69.86c0-7.66-3.38-11.48-10.14-11.48-6.12,0-11.68,3.19-16.65,9.57v71.77h-35.98Z"/><path class="b" d="M497.55,154.89V50.2h34.26l1.53,11.29c9.19-9.19,19.27-13.78,30.24-13.78s19.81,3.22,24.98,9.67c5.17,6.44,7.75,15.98,7.75,28.61v68.9h-35.98v-69.86c0-7.66-3.38-11.48-10.14-11.48-6.12,0-11.68,3.19-16.65,9.57v71.77h-35.98Z"/><path class="b" d="M601.09,102.26c0-16.58,5.2-29.82,15.6-39.71,10.4-9.89,23.13-14.83,38.18-14.83s27.05,4.31,35.98,12.92c8.93,8.61,13.4,20.19,13.4,34.74,0,5.49-.45,10.59-1.34,15.31h-65.26c1.79,12.51,8.61,18.76,20.48,18.76,9.44,0,18.82-2.74,28.14-8.23l14.55,21.63c-13.14,9.7-28.52,14.55-46.13,14.55-15.44,0-28.23-4.94-38.37-14.83-10.14-9.89-15.22-23.32-15.22-40.29ZM656.02,72.59c-4.47,0-8.29,1.63-11.48,4.88-3.19,3.25-5.36,8.13-6.51,14.64h32.73c0-5.87-1.22-10.59-3.64-14.16-2.43-3.57-6.12-5.36-11.1-5.36Z"/><path class="b" d="M705.39,102.26c0-16.71,5.2-29.98,15.6-39.81,10.4-9.82,23.64-14.74,39.71-14.74,14.29,0,27.05,4.53,38.28,13.59l-17.61,22.39c-6-4.98-12.44-7.46-19.33-7.46-5.62,0-10.4,2.23-14.35,6.7-3.96,4.47-5.93,10.91-5.93,19.33s1.98,15.12,5.93,19.71c3.95,4.59,8.74,6.89,14.35,6.89,6.38,0,12.57-2.36,18.57-7.08l18.95,19.91c-11.36,10.46-24.31,15.69-38.85,15.69-15.95,0-29.16-4.98-39.62-14.93-10.46-9.95-15.69-23.35-15.69-40.19Z"/><path class="b" d="M809.7,119.87v-45.55h-15.12v-24.11h15.12v-23.73h35.98v23.73h27.94v24.11h-27.94v44.79c0,6.51,2.68,9.76,8.04,9.76,4.34,0,8.55-1.47,12.63-4.4l12.63,20.67c-10.21,8.17-21.82,12.25-34.83,12.25-11.87,0-20.57-3-26.13-9-5.55-6-8.33-15.5-8.33-28.52Z"/><path class="b" d="M872.29,102.26c0-16.58,5.2-29.82,15.6-39.71,10.4-9.89,23.13-14.83,38.18-14.83s27.05,4.31,35.98,12.92c8.93,8.61,13.4,20.19,13.4,34.74,0,5.49-.45,10.59-1.34,15.31h-65.26c1.79,12.51,8.61,18.76,20.48,18.76,9.44,0,18.82-2.74,28.14-8.23l14.55,21.63c-13.14,9.7-28.52,14.55-46.13,14.55-15.44,0-28.23-4.94-38.37-14.83-10.14-9.89-15.22-23.32-15.22-40.29ZM927.22,72.59c-4.47,0-8.29,1.63-11.48,4.88-3.19,3.25-5.36,8.13-6.51,14.64h32.73c0-5.87-1.22-10.59-3.64-14.16-2.43-3.57-6.12-5.36-11.1-5.36Z"/><path class="b" d="M1015.06,157c-11.23,0-20.38-4.78-27.47-14.35-7.08-9.57-10.62-23.22-10.62-40.96s3.51-30.97,10.53-40.1c7.02-9.12,16.59-13.69,28.71-13.69,11.48,0,20.8,4.4,27.94,13.21V10.39h35.98v144.5h-31.58l-2.11-11.68c-8.93,9.19-19.4,13.78-31.39,13.78ZM1028.08,130.58c6.25,0,11.61-2.42,16.08-7.27v-41.15c-4.72-5.1-10.08-7.66-16.08-7.66-10.34,0-15.5,9.06-15.5,27.18,0,8.68,1.31,15.66,3.92,20.96,2.61,5.3,6.48,7.94,11.58,7.94Z"/><path class="b" d="M1095.55,153.55v-23.28h-9.58v-7.47h27.58v7.47h-9.58v23.28h-8.43Z"/><path class="b" d="M1114.79,153.55v-30.75h8.48l8.13,11.42,8.17-11.42h8.35v30.75h-7.95v-19.06l-8.57,11.68-8.57-11.68v19.06h-8.04Z"/></svg>