<?xml version="1.0" encoding="UTF-8"?><svg id="a" xmlns="http://www.w3.org/2000/svg" viewBox="0 0 32 32"><defs><style>.b{fill:#2e95f3;}.c{fill:#f6fbff;}.d{fill:#021220;}.e{fill:#1c75bc;}</style></defs><rect class="d" width="32" height="32" rx="5.97" ry="5.97"/><path class="e" d="M19.3,14.88c1.02-1.41,2.54-3.17,3.15-3.32,1.21-.3,2.43.44,2.73,1.65s-.44,2.43-1.65,2.73c-.3.07-.83-.03-1.48-.24,1.3.61,2.55,1,3.66,1.19.37.06.71.1,1.05.12,1.02-1.18,1.48-2.83,1.08-4.46-.66-2.67-3.37-4.31-6.04-3.65-1.13.28-2.36,1.29-3.77,3.1-.25.32-.83,1.13-1.04,1.42.01,0,.03.01.04.02"/><path class="e" d="M15.92,15.71c-1.55-.77-3.72-1.63-4.34-1.48-1.21.3-1.95,1.52-1.65,2.73s1.52,1.95,2.73,1.65c.3-.07.72-.41,1.2-.9-.87,1.15-1.79,2.07-2.69,2.76-.3.23-.59.42-.87.6-1.46-.57-2.63-1.82-3.03-3.45-.66-2.67.98-5.38,3.65-6.04,1.13-.28,2.69.05,4.78.99.37.17,1.26.61,1.58.77,0,.01-.02.02-.02.04"/><path class="b" d="M9.39,13.29c1.11.18,2.37.62,3.67,1.23.76.25,1.67.62,2.55,1.07l2.38,1.31h0c.4.22.89.46,1.41.69,2.09.94,3.65,1.27,4.77.99,1.04-.26,1.92-.82,2.57-1.58-.33-.02-.68-.06-1.05-.12-1.11-.18-2.36-.58-3.66-1.19-.76-.25-1.68-.64-2.56-1.09l-2.39-1.34h0c-.4-.22-.89-.46-1.41-.69-2.09-.94-3.65-1.27-4.77-.99-1.04.26-1.92.82-2.57,1.58.33.02.68.06,1.05.12Z"/><path class="b" d="M11.17,20.48c.9-.68,1.82-1.61,2.69-2.76.56-.57,1.19-1.35,1.76-2.16l1.49-2.3h0c.26-.38.57-.82.93-1.27,1.41-1.81,2.64-2.82,3.77-3.1,1.04-.26,2.08-.16,3.01.2-.28.17-.57.37-.87.6-.9.68-1.84,1.68-2.71,2.83-.56.57-1.16,1.31-1.72,2.12l-1.5,2.27h0c-.26.38-.57.82-.93,1.27-1.41,1.81-2.64,2.82-3.77,3.1-1.04.26-2.08.16-3.01-.2.28-.17.57-.37.87-.6Z"/><path class="c" d="M3.4,22.63c0-.49.44-.78,1.31-.86v-.13c0-.14-.08-.21-.25-.21s-.42.08-.75.23l-.27-.56c.37-.19.73-.29,1.05-.29.66,0,.99.28.99.85v.86c0,.09.05.14.16.14v.52c-.26,0-.44-.02-.56-.06-.12-.04-.22-.12-.3-.24-.1.12-.21.2-.32.26-.11.05-.25.08-.4.08-.2,0-.36-.06-.48-.17-.13-.11-.19-.26-.19-.44ZM4.18,22.51c0,.05.02.1.06.14.04.04.09.05.15.05.13,0,.24-.05.32-.16v-.38c-.35.03-.53.14-.53.34Z"/><path class="c" d="M5.74,20.62v-.61h.8v.61h-.8ZM5.74,23.19v-2.26h.8v2.26h-.8Z"/><path class="c" d="M6.67,21.71c0-.44.15-.8.44-1.09.3-.29.67-.44,1.13-.44.42,0,.8.14,1.13.41l-.45.54c-.22-.18-.44-.27-.67-.27s-.42.08-.56.23c-.14.15-.21.36-.21.61s.07.47.2.62c.14.15.32.23.56.23.25,0,.48-.09.67-.28l.47.5c-.34.31-.73.47-1.19.47s-.82-.15-1.11-.44c-.29-.29-.43-.66-.43-1.1Z"/><path class="c" d="M9.31,22.02c0-.35.11-.64.34-.86.23-.22.51-.33.85-.33s.62.11.85.33c.22.22.34.51.34.86,0,.38-.11.68-.33.9-.22.22-.5.33-.86.33s-.65-.11-.86-.33c-.22-.22-.32-.52-.32-.9ZM10.1,22.02c0,.2.03.36.1.48.07.12.16.17.29.17s.22-.06.29-.17c.07-.12.1-.27.1-.48,0-.19-.03-.34-.1-.45-.07-.11-.16-.17-.28-.17s-.22.06-.29.17c-.07.11-.11.26-.11.45Z"/><path class="c" d="M11.8,23.19v-2.31h.76l.03.25c.2-.2.42-.3.67-.3s.44.07.55.21c.11.14.17.35.17.63v1.52h-.79v-1.54c0-.17-.07-.25-.22-.25-.14,0-.26.07-.37.21v1.58h-.79Z"/><path class="c" d="M14.17,23.19v-2.31h.76l.03.25c.2-.2.42-.3.67-.3s.44.07.55.21c.11.14.17.35.17.63v1.52h-.79v-1.54c0-.17-.07-.25-.22-.25-.14,0-.26.07-.37.21v1.58h-.79Z"/><path class="c" d="M16.45,22.03c0-.37.11-.66.34-.88.23-.22.51-.33.84-.33s.6.09.79.28c.2.19.3.45.3.77,0,.12,0,.23-.03.34h-1.44c.04.28.19.41.45.41.21,0,.41-.06.62-.18l.32.48c-.29.21-.63.32-1.02.32-.34,0-.62-.11-.85-.33-.22-.22-.34-.51-.34-.89ZM17.66,21.37c-.1,0-.18.04-.25.11-.07.07-.12.18-.14.32h.72c0-.13-.03-.23-.08-.31-.05-.08-.14-.12-.24-.12Z"/><path class="c" d="M18.75,22.03c0-.37.11-.66.34-.88.23-.22.52-.32.88-.32.31,0,.6.1.84.3l-.39.49c-.13-.11-.27-.16-.43-.16-.12,0-.23.05-.32.15-.09.1-.13.24-.13.43s.04.33.13.43c.09.1.19.15.32.15.14,0,.28-.05.41-.16l.42.44c-.25.23-.54.35-.86.35-.35,0-.64-.11-.87-.33-.23-.22-.35-.51-.35-.89Z"/><path class="c" d="M21.05,22.42v-1h-.33v-.53h.33v-.52h.79v.52h.62v.53h-.62v.99c0,.14.06.22.18.22.1,0,.19-.03.28-.1l.28.46c-.23.18-.48.27-.77.27-.26,0-.45-.07-.58-.2-.12-.13-.18-.34-.18-.63Z"/><path class="c" d="M22.43,22.03c0-.37.11-.66.34-.88.23-.22.51-.33.84-.33s.6.09.79.28c.2.19.3.45.3.77,0,.12,0,.23-.03.34h-1.44c.04.28.19.41.45.41.21,0,.41-.06.62-.18l.32.48c-.29.21-.63.32-1.02.32-.34,0-.62-.11-.85-.33-.22-.22-.34-.51-.34-.89ZM23.64,21.37c-.1,0-.18.04-.25.11-.07.07-.12.18-.14.32h.72c0-.13-.03-.23-.08-.31-.05-.08-.14-.12-.24-.12Z"/><path class="c" d="M25.58,23.24c-.25,0-.45-.11-.61-.32-.16-.21-.23-.51-.23-.9s.08-.68.23-.88c.15-.2.37-.3.63-.3.25,0,.46.1.62.29v-1.12h.79v3.19h-.7l-.05-.26c-.2.2-.43.3-.69.3ZM25.86,22.65c.14,0,.26-.05.35-.16v-.91c-.1-.11-.22-.17-.35-.17-.23,0-.34.2-.34.6,0,.19.03.35.09.46.06.12.14.18.26.18Z"/><path class="c" d="M27.41,23.22v-.51h-.21v-.16h.6v.16h-.21v.51h-.18Z"/><path class="c" d="M27.88,23.22v-.67h.18l.18.25.18-.25h.18v.67h-.17v-.42l-.19.25-.19-.25v.42h-.18Z"/></svg>