<?xml version="1.0" encoding="UTF-8"?><svg id="a" xmlns="http://www.w3.org/2000/svg" viewBox="0 0 597.17 597.34"><defs><style>.b{fill:#2e95f3;}.c{fill:#f6fbff;}.d{fill:#1e2328;}.e{fill:#1c75bc;}</style></defs><rect class="d" x="3.11" y="3.19" width="590.95" height="590.95" rx="118.89" ry="118.89"/><path class="e" d="M363.73,276.52c20.06-27.79,50.17-62.7,62.29-65.69,23.88-5.89,48.1,8.73,54,32.62,5.89,23.88-8.74,48.1-32.62,53.99-5.86,1.45-16.45-.53-29.27-4.65,25.7,12.1,50.37,19.83,72.35,23.48,7.24,1.23,14.12,1.99,20.66,2.47,20.26-23.41,29.28-55.96,21.31-88.23-13.03-52.79-66.58-85.15-119.38-72.12-22.26,5.49-46.61,25.52-74.44,61.21-4.94,6.34-16.47,22.26-20.55,28.01.25.14.5.26.75.41"/><path class="e" d="M296.95,293c-30.69-15.26-73.58-32.15-85.7-29.16-23.88,5.89-38.51,30.11-32.61,54,5.89,23.88,30.12,38.51,53.99,32.61,5.86-1.45,14.32-8.12,23.74-17.74-17.12,22.66-35.36,40.99-53.11,54.45-5.84,4.46-11.57,8.34-17.14,11.8-28.83-11.3-51.95-35.91-59.92-68.18-13.03-52.79,19.32-106.35,72.11-119.38,22.26-5.49,53.13.9,94.38,19.54,7.32,3.31,24.94,12.04,31.22,15.23-.15.23-.32.47-.47.71"/><path class="b" d="M168.04,245.05c21.98,3.65,46.89,12.26,72.59,24.36,15.07,4.86,33.08,12.34,50.41,21.23l47.07,25.97v.06c8.01,4.22,17.58,9.02,27.87,13.67,41.24,18.64,72.12,25.04,94.37,19.54,20.51-5.06,37.92-16.27,50.8-31.14-6.53-.47-13.42-1.23-20.66-2.47-21.98-3.65-46.65-11.39-72.35-23.48-15.07-4.86-33.24-12.7-50.57-21.58l-47.14-26.5v-.05c-8.01-4.22-17.58-9.02-27.87-13.67-41.24-18.64-72.11-25.03-94.37-19.54-20.52,5.06-37.92,16.27-50.8,31.14,6.53.47,13.42,1.23,20.66,2.47Z"/><path class="b" d="M203.13,387.2c17.76-13.46,36-31.78,53.12-54.45,11.08-11.31,23.52-26.7,34.72-42.63l29.4-45.39v-.06c5.1-7.46,11.33-16.15,18.28-25.06,27.83-35.69,52.18-55.72,74.44-61.21,20.51-5.06,41.13-3.25,59.46,3.93-5.56,3.46-11.3,7.34-17.14,11.8-17.76,13.46-36.38,33.19-53.5,55.85-11.08,11.31-22.83,25.88-34.04,41.81l-29.7,44.82v.05c-5.11,7.46-11.33,16.16-18.28,25.07-27.83,35.69-52.18,55.71-74.44,61.21-20.52,5.06-41.13,3.25-59.46-3.93,5.57-3.45,11.3-7.33,17.14-11.8Z"/><path class="c" d="M49.46,429.75c0-9.73,8.64-15.37,25.93-16.93v-2.5c0-2.78-1.64-4.17-4.92-4.17s-8.31,1.53-14.76,4.59l-5.25-11.01c7.39-3.78,14.34-5.67,20.85-5.67,13.06,0,19.6,5.62,19.6,16.84v17.1c0,1.83,1.03,2.75,3.09,2.75v10.26c-5.06,0-8.77-.39-11.13-1.17-2.36-.78-4.32-2.33-5.88-4.67-2,2.34-4.1,4.03-6.3,5.09-2.2,1.06-4.85,1.58-7.96,1.58-3.89,0-7.08-1.11-9.55-3.34-2.47-2.22-3.71-5.14-3.71-8.76ZM64.97,427.42c0,1.06.38,1.95,1.13,2.67.75.72,1.74,1.08,2.96,1.08,2.56,0,4.67-1.03,6.34-3.09v-7.42c-6.95.5-10.42,2.75-10.42,6.75Z"/><path class="c" d="M95.82,390.06v-12.09h15.76v12.09h-15.76ZM95.82,440.76v-44.7h15.76v44.7h-15.76Z"/><path class="c" d="M114.25,411.49c0-8.62,2.92-15.8,8.76-21.56,5.84-5.75,13.26-8.63,22.27-8.63,8.28,0,15.73,2.7,22.35,8.09l-8.84,10.76c-4.28-3.56-8.67-5.34-13.18-5.34s-8.3,1.52-11.05,4.54c-2.75,3.03-4.13,7.08-4.13,12.13s1.35,9.27,4.04,12.3c2.7,3.03,6.41,4.54,11.13,4.54,5,0,9.42-1.86,13.26-5.59l9.34,9.84c-6.67,6.17-14.51,9.26-23.52,9.26s-16.26-2.88-21.93-8.63c-5.67-5.75-8.51-12.99-8.51-21.72Z"/><path class="c" d="M166.29,417.57c0-6.95,2.22-12.6,6.67-16.97,4.45-4.36,10.06-6.55,16.84-6.55s12.31,2.18,16.76,6.55c4.45,4.36,6.67,10.02,6.67,16.97,0,7.45-2.16,13.36-6.46,17.72-4.31,4.36-9.97,6.55-16.97,6.55s-12.81-2.18-17.09-6.55c-4.28-4.36-6.42-10.27-6.42-17.72ZM182.05,417.66c0,4,.65,7.14,1.96,9.42,1.31,2.28,3.24,3.42,5.8,3.42s4.41-1.14,5.71-3.42c1.31-2.28,1.96-5.42,1.96-9.42,0-3.72-.68-6.7-2.04-8.92-1.36-2.22-3.24-3.34-5.63-3.34s-4.28,1.11-5.67,3.34c-1.39,2.22-2.08,5.2-2.08,8.92Z"/><path class="c" d="M215.57,440.76v-45.61h14.93l.67,4.92c4-4,8.39-6,13.18-6s8.63,1.4,10.88,4.21c2.25,2.81,3.38,6.96,3.38,12.47v30.02h-15.68v-30.44c0-3.34-1.47-5-4.42-5-2.67,0-5.09,1.39-7.25,4.17v31.27h-15.68Z"/><path class="c" d="M262.35,440.76v-45.61h14.93l.67,4.92c4-4,8.39-6,13.18-6s8.63,1.4,10.88,4.21c2.25,2.81,3.38,6.96,3.38,12.47v30.02h-15.68v-30.44c0-3.34-1.47-5-4.42-5-2.67,0-5.09,1.39-7.25,4.17v31.27h-15.68Z"/><path class="c" d="M307.46,417.83c0-7.23,2.26-12.99,6.8-17.3,4.53-4.31,10.08-6.46,16.64-6.46s11.79,1.88,15.68,5.63c3.89,3.75,5.84,8.8,5.84,15.13,0,2.39-.2,4.62-.58,6.67h-28.44c.78,5.45,3.75,8.17,8.92,8.17,4.11,0,8.2-1.19,12.26-3.59l6.34,9.42c-5.73,4.23-12.43,6.34-20.1,6.34-6.73,0-12.3-2.15-16.72-6.46-4.42-4.31-6.63-10.16-6.63-17.55ZM331.4,404.9c-1.95,0-3.61.71-5,2.13-1.39,1.42-2.33,3.54-2.83,6.38h14.26c0-2.56-.53-4.61-1.58-6.17-1.06-1.56-2.67-2.33-4.84-2.33Z"/><path class="c" d="M352.91,417.83c0-7.28,2.26-13.06,6.8-17.35,4.53-4.28,10.3-6.42,17.3-6.42,6.23,0,11.79,1.97,16.68,5.92l-7.67,9.76c-2.61-2.17-5.42-3.25-8.42-3.25-2.45,0-4.53.97-6.25,2.92-1.72,1.95-2.58,4.75-2.58,8.42s.86,6.59,2.58,8.59c1.72,2,3.81,3,6.25,3,2.78,0,5.48-1.03,8.09-3.09l8.26,8.67c-4.95,4.56-10.59,6.84-16.93,6.84-6.95,0-12.7-2.17-17.26-6.5-4.56-4.34-6.84-10.17-6.84-17.51Z"/><path class="c" d="M398.36,425.5v-19.85h-6.59v-10.51h6.59v-10.34h15.68v10.34h12.17v10.51h-12.17v19.51c0,2.84,1.17,4.25,3.5,4.25,1.89,0,3.72-.64,5.5-1.92l5.5,9.01c-4.45,3.56-9.51,5.34-15.18,5.34-5.17,0-8.96-1.31-11.38-3.92-2.42-2.61-3.63-6.75-3.63-12.42Z"/><path class="c" d="M425.62,417.83c0-7.23,2.26-12.99,6.8-17.3,4.53-4.31,10.08-6.46,16.64-6.46s11.79,1.88,15.68,5.63c3.89,3.75,5.84,8.8,5.84,15.13,0,2.39-.2,4.62-.58,6.67h-28.44c.78,5.45,3.75,8.17,8.92,8.17,4.11,0,8.2-1.19,12.26-3.59l6.34,9.42c-5.73,4.23-12.43,6.34-20.1,6.34-6.73,0-12.3-2.15-16.72-6.46-4.42-4.31-6.63-10.16-6.63-17.55ZM449.56,404.9c-1.95,0-3.61.71-5,2.13-1.39,1.42-2.33,3.54-2.83,6.38h14.26c0-2.56-.53-4.61-1.58-6.17-1.06-1.56-2.67-2.33-4.84-2.33Z"/><path class="c" d="M487.83,441.67c-4.89,0-8.88-2.08-11.97-6.25-3.09-4.17-4.63-10.12-4.63-17.85s1.53-13.49,4.59-17.47c3.06-3.97,7.23-5.96,12.51-5.96,5,0,9.06,1.92,12.17,5.75v-22.1h15.68v62.96h-13.76l-.92-5.09c-3.89,4-8.45,6-13.68,6ZM493.5,430.17c2.72,0,5.06-1.06,7-3.17v-17.93c-2.06-2.22-4.39-3.34-7-3.34-4.5,0-6.75,3.95-6.75,11.84,0,3.78.57,6.83,1.71,9.13,1.14,2.31,2.82,3.46,5.05,3.46Z"/><path class="c" d="M524.19,441.38v-10.03h-4.13v-3.22h11.89v3.22h-4.13v10.03h-3.63Z"/><path class="c" d="M533.43,441.38v-13.25h3.65l3.5,4.92,3.52-4.92h3.6v13.25h-3.43v-8.22l-3.69,5.04-3.69-5.04v8.22h-3.46Z"/></svg>