<?xml version="1.0" encoding="UTF-8"?><svg id="a" xmlns="http://www.w3.org/2000/svg" viewBox="0 0 597.17 372.25"><defs><style>.b{fill:#2e95f3;}.c{fill:#1c75bc;}</style></defs><path class="c" d="M347.73,178.1c28.66-39.7,71.67-89.56,88.98-93.84,34.11-8.42,68.71,12.48,77.13,46.59,8.42,34.11-12.48,68.7-46.59,77.13-8.38,2.07-23.5-.76-41.81-6.65,36.71,17.28,71.96,28.32,103.35,33.54,10.34,1.76,20.17,2.85,29.51,3.53,28.94-33.45,41.82-79.93,30.44-126.04-18.62-75.42-95.11-121.63-170.53-103.02-31.79,7.85-66.58,36.45-106.34,87.44-7.06,9.06-23.53,31.8-29.36,40.02.35.19.71.38,1.07.58"/><path class="c" d="M252.34,201.64c-43.84-21.8-105.11-45.93-122.43-41.65-34.11,8.42-55.01,43.02-46.59,77.13,8.42,34.11,43.02,55.01,77.13,46.59,8.38-2.07,20.45-11.61,33.91-25.34-24.45,32.38-50.51,58.55-75.87,77.78-8.34,6.37-16.53,11.91-24.48,16.85-41.18-16.14-74.22-51.29-85.6-97.39C-10.2,180.2,36.01,103.69,111.42,85.08c31.8-7.85,75.9,1.28,134.81,27.91,10.46,4.73,35.63,17.19,44.6,21.76-.22.33-.45.67-.67,1.01"/><path class="b" d="M68.19,133.15c31.4,5.21,66.98,17.51,103.69,34.8,21.53,6.94,47.25,17.63,72.01,30.33l67.24,37.09.02.09c11.43,6.03,25.09,12.88,39.79,19.52,58.92,26.63,103.02,35.76,134.81,27.92,29.3-7.23,54.17-23.24,72.57-44.49-9.33-.68-19.17-1.76-29.51-3.53-31.4-5.22-66.64-16.27-103.35-33.54-21.53-6.94-47.48-18.13-72.24-30.83l-67.34-37.86-.02-.08c-11.43-6.03-25.09-12.89-39.8-19.53-58.92-26.63-103.01-35.75-134.81-27.91-29.31,7.23-54.17,23.24-72.57,44.49,9.33.67,19.17,1.75,29.51,3.52Z"/><path class="b" d="M118.31,336.2c25.36-19.22,51.42-45.4,75.87-77.79,15.83-16.16,33.59-38.14,49.6-60.9l41.99-64.84-.02-.09c7.31-10.65,16.21-23.08,26.14-35.8,39.76-50.99,74.54-79.59,106.34-87.44,29.3-7.23,58.76-4.64,84.93,5.61-7.95,4.94-16.14,10.48-24.48,16.85-25.36,19.23-51.97,47.41-76.42,79.79-15.83,16.16-32.61,36.97-48.62,59.72l-42.42,64.02.02.08c-7.31,10.65-16.21,23.08-26.13,35.81-39.76,50.99-74.55,79.58-106.34,87.43-29.31,7.23-58.76,4.64-84.93-5.61,7.95-4.93,16.15-10.47,24.48-16.85Z"/></svg>